<mxfile host="app.diagrams.net" modified="2024-05-31T07:50:07.870Z" agent="Mozilla/5.0 (Windows NT 10.0; Win64; x64) AppleWebKit/537.36 (KHTML, like Gecko) Chrome/125.0.0.0 Safari/537.36 Edg/125.0.0.0" etag="SoN_17uKoWVX2Htg7eHg" version="24.4.10" type="github">
  <diagram name="第 1 页" id="qjwW6SVEBtQykfUsJtfE">
    <mxGraphModel dx="986" dy="751" grid="0" gridSize="10" guides="1" tooltips="1" connect="1" arrows="1" fold="1" page="0" pageScale="1" pageWidth="827" pageHeight="1169" math="0" shadow="0">
      <root>
        <mxCell id="0" />
        <mxCell id="1" parent="0" />
        <mxCell id="FKCMRZqIOufiTxkenyYx-34" style="edgeStyle=orthogonalEdgeStyle;rounded=0;orthogonalLoop=1;jettySize=auto;html=1;exitX=0.5;exitY=1;exitDx=0;exitDy=0;entryX=0.5;entryY=0;entryDx=0;entryDy=0;" edge="1" parent="1" source="FKCMRZqIOufiTxkenyYx-1" target="FKCMRZqIOufiTxkenyYx-2">
          <mxGeometry relative="1" as="geometry" />
        </mxCell>
        <mxCell id="FKCMRZqIOufiTxkenyYx-1" value="待盘点系统导出资产信息" style="rounded=1;whiteSpace=wrap;html=1;" vertex="1" parent="1">
          <mxGeometry x="508" y="177" width="120" height="60" as="geometry" />
        </mxCell>
        <mxCell id="FKCMRZqIOufiTxkenyYx-35" style="edgeStyle=orthogonalEdgeStyle;rounded=0;orthogonalLoop=1;jettySize=auto;html=1;exitX=0.5;exitY=1;exitDx=0;exitDy=0;entryX=0.5;entryY=0;entryDx=0;entryDy=0;" edge="1" parent="1" source="FKCMRZqIOufiTxkenyYx-2" target="FKCMRZqIOufiTxkenyYx-3">
          <mxGeometry relative="1" as="geometry" />
        </mxCell>
        <mxCell id="FKCMRZqIOufiTxkenyYx-36" value="形成" style="edgeLabel;html=1;align=center;verticalAlign=middle;resizable=0;points=[];" vertex="1" connectable="0" parent="FKCMRZqIOufiTxkenyYx-35">
          <mxGeometry x="-0.1273" relative="1" as="geometry">
            <mxPoint as="offset" />
          </mxGeometry>
        </mxCell>
        <mxCell id="FKCMRZqIOufiTxkenyYx-2" value="精臣系统导入" style="rounded=1;whiteSpace=wrap;html=1;" vertex="1" parent="1">
          <mxGeometry x="508" y="302" width="120" height="60" as="geometry" />
        </mxCell>
        <mxCell id="FKCMRZqIOufiTxkenyYx-3" value="资产账" style="rounded=1;whiteSpace=wrap;html=1;fillColor=#d5e8d4;strokeColor=#82b366;" vertex="1" parent="1">
          <mxGeometry x="508" y="411" width="120" height="60" as="geometry" />
        </mxCell>
        <mxCell id="FKCMRZqIOufiTxkenyYx-37" style="edgeStyle=orthogonalEdgeStyle;rounded=0;orthogonalLoop=1;jettySize=auto;html=1;exitX=0.5;exitY=1;exitDx=0;exitDy=0;" edge="1" parent="1" source="FKCMRZqIOufiTxkenyYx-4" target="FKCMRZqIOufiTxkenyYx-5">
          <mxGeometry relative="1" as="geometry" />
        </mxCell>
        <mxCell id="FKCMRZqIOufiTxkenyYx-38" value="&lt;div&gt;给资产实体&lt;/div&gt;&lt;div&gt;贴清查码&lt;/div&gt;" style="edgeLabel;html=1;align=center;verticalAlign=middle;resizable=0;points=[];" vertex="1" connectable="0" parent="FKCMRZqIOufiTxkenyYx-37">
          <mxGeometry x="-0.0909" y="-1" relative="1" as="geometry">
            <mxPoint as="offset" />
          </mxGeometry>
        </mxCell>
        <mxCell id="FKCMRZqIOufiTxkenyYx-4" value="精臣系统打印清查条码" style="rounded=1;whiteSpace=wrap;html=1;" vertex="1" parent="1">
          <mxGeometry x="761" y="73" width="120" height="60" as="geometry" />
        </mxCell>
        <mxCell id="FKCMRZqIOufiTxkenyYx-39" style="edgeStyle=orthogonalEdgeStyle;rounded=0;orthogonalLoop=1;jettySize=auto;html=1;exitX=0.5;exitY=1;exitDx=0;exitDy=0;" edge="1" parent="1" source="FKCMRZqIOufiTxkenyYx-5" target="FKCMRZqIOufiTxkenyYx-6">
          <mxGeometry relative="1" as="geometry" />
        </mxCell>
        <mxCell id="FKCMRZqIOufiTxkenyYx-40" value="&lt;div&gt;完善清查资产信息&lt;/div&gt;" style="edgeLabel;html=1;align=center;verticalAlign=middle;resizable=0;points=[];" vertex="1" connectable="0" parent="FKCMRZqIOufiTxkenyYx-39">
          <mxGeometry x="-0.2542" y="-2" relative="1" as="geometry">
            <mxPoint as="offset" />
          </mxGeometry>
        </mxCell>
        <mxCell id="FKCMRZqIOufiTxkenyYx-5" value="清查条码与资产实体绑定" style="rounded=1;whiteSpace=wrap;html=1;" vertex="1" parent="1">
          <mxGeometry x="761" y="177" width="120" height="60" as="geometry" />
        </mxCell>
        <mxCell id="FKCMRZqIOufiTxkenyYx-41" style="edgeStyle=orthogonalEdgeStyle;rounded=0;orthogonalLoop=1;jettySize=auto;html=1;exitX=0.5;exitY=1;exitDx=0;exitDy=0;" edge="1" parent="1" source="FKCMRZqIOufiTxkenyYx-6" target="FKCMRZqIOufiTxkenyYx-7">
          <mxGeometry relative="1" as="geometry" />
        </mxCell>
        <mxCell id="FKCMRZqIOufiTxkenyYx-42" value="形成" style="edgeLabel;html=1;align=center;verticalAlign=middle;resizable=0;points=[];" vertex="1" connectable="0" parent="FKCMRZqIOufiTxkenyYx-41">
          <mxGeometry x="-0.0909" y="1" relative="1" as="geometry">
            <mxPoint as="offset" />
          </mxGeometry>
        </mxCell>
        <mxCell id="FKCMRZqIOufiTxkenyYx-6" value="通过扫描清查码录入资产信息" style="rounded=1;whiteSpace=wrap;html=1;" vertex="1" parent="1">
          <mxGeometry x="761" y="302" width="120" height="60" as="geometry" />
        </mxCell>
        <mxCell id="FKCMRZqIOufiTxkenyYx-7" value="清查账" style="rounded=1;whiteSpace=wrap;html=1;fillColor=#d5e8d4;strokeColor=#82b366;" vertex="1" parent="1">
          <mxGeometry x="761" y="411" width="120" height="60" as="geometry" />
        </mxCell>
        <mxCell id="FKCMRZqIOufiTxkenyYx-28" value="盘点结果" style="rounded=1;whiteSpace=wrap;html=1;fillColor=#f8cecc;strokeColor=#b85450;" vertex="1" parent="1">
          <mxGeometry x="633" y="567" width="120" height="60" as="geometry" />
        </mxCell>
        <mxCell id="FKCMRZqIOufiTxkenyYx-32" value="" style="strokeWidth=2;html=1;shape=mxgraph.flowchart.annotation_2;align=left;labelPosition=right;pointerEvents=1;rotation=-90;" vertex="1" parent="1">
          <mxGeometry x="643" y="387" width="92.5" height="270" as="geometry" />
        </mxCell>
        <mxCell id="FKCMRZqIOufiTxkenyYx-44" value="智能匹配" style="text;html=1;align=center;verticalAlign=middle;whiteSpace=wrap;rounded=0;" vertex="1" parent="1">
          <mxGeometry x="606" y="486" width="60" height="30" as="geometry" />
        </mxCell>
        <mxCell id="FKCMRZqIOufiTxkenyYx-45" value="手动匹配" style="text;html=1;align=center;verticalAlign=middle;whiteSpace=wrap;rounded=0;" vertex="1" parent="1">
          <mxGeometry x="705" y="486" width="60" height="30" as="geometry" />
        </mxCell>
        <mxCell id="FKCMRZqIOufiTxkenyYx-46" value="形成" style="text;html=1;align=center;verticalAlign=middle;whiteSpace=wrap;rounded=0;" vertex="1" parent="1">
          <mxGeometry x="688" y="531" width="60" height="30" as="geometry" />
        </mxCell>
      </root>
    </mxGraphModel>
  </diagram>
</mxfile>
